<svg xmlns="http://www.w3.org/2000/svg" width="320" height="320" viewBox="0 0 320 320"><g opacity="0.4"><g fill="#7FA0C4" stroke="#7FA0C4" stroke-width="1.0"><ellipse cx="65.5" cy="42.0" rx="10.5" ry="5.5" transform="rotate(0 65.5 42.0)"/><ellipse cx="60.4" cy="54.4" rx="10.5" ry="5.5" transform="rotate(45 60.4 54.4)"/><ellipse cx="48.0" cy="59.5" rx="10.5" ry="5.5" transform="rotate(90 48.0 59.5)"/><ellipse cx="35.6" cy="54.4" rx="10.5" ry="5.5" transform="rotate(135 35.6 54.4)"/><ellipse cx="30.5" cy="42.0" rx="10.5" ry="5.5" transform="rotate(180 30.5 42.0)"/><ellipse cx="35.6" cy="29.6" rx="10.5" ry="5.5" transform="rotate(225 35.6 29.6)"/><ellipse cx="48.0" cy="24.5" rx="10.5" ry="5.5" transform="rotate(270 48.0 24.5)"/><ellipse cx="60.4" cy="29.6" rx="10.5" ry="5.5" transform="rotate(315 60.4 29.6)"/><circle cx="48.0" cy="42.0" r="7.5" fill="#3E5F82"/><g transform="translate(158.0,36.0) rotate(-10)"><path d="M 0,-22.5 C 9.0,-15.0 8.2,-1.5 0,4.5 C -8.2,-1.5 -9.0,-15.0 0,-22.5 Z"/><circle cx="-10.2" cy="0.8" r="2.2"/><circle cx="10.2" cy="0.8" r="2.2"/><path d="M 0,4.5 Q 2.2,13.5 0,21.0" fill="none" stroke="#7FA0C4" stroke-width="1.3"/><path d="M 0,10.5 C 10.5,8.2 13.5,13.5 6.0,15.8" fill="none" stroke="#7FA0C4" stroke-width="1.3"/><path d="M 0,14.2 C -10.5,12.0 -13.5,17.2 -6.0,19.5" fill="none" stroke="#7FA0C4" stroke-width="1.3"/></g><circle cx="252.0" cy="60.0" r="5.9"/><circle cx="265.0" cy="60.0" r="7.1"/><circle cx="258.5" cy="71.3" r="7.1"/><circle cx="245.5" cy="71.3" r="7.1"/><circle cx="239.0" cy="60.0" r="7.1"/><circle cx="245.5" cy="48.7" r="7.1"/><circle cx="258.5" cy="48.7" r="7.1"/><circle cx="269.8" cy="70.3" r="1.9"/><circle cx="252.0" cy="80.6" r="1.9"/><circle cx="234.2" cy="70.3" r="1.9"/><circle cx="234.2" cy="49.7" r="1.9"/><circle cx="252.0" cy="39.4" r="1.9"/><circle cx="269.8" cy="49.7" r="1.9"/><g transform="translate(105.0,88.0) rotate(38)"><path d="M 0,-19.8 C 15.3,-12.6 15.3,12.6 0,19.8 C -15.3,12.6 -15.3,-12.6 0,-19.8 Z" fill="#7FA0C4"/><g stroke="#3E5F82" stroke-width="1.6" fill="none"><line x1="-6.1" y1="-17.3" x2="6.1" y2="-13.0"/><line x1="-10.1" y1="-12.2" x2="10.1" y2="-7.9"/><line x1="-14.0" y1="-7.2" x2="14.0" y2="-2.9"/><line x1="-18.0" y1="-2.2" x2="18.0" y2="2.2"/><line x1="-14.0" y1="2.9" x2="14.0" y2="7.2"/><line x1="-10.1" y1="7.9" x2="10.1" y2="12.2"/><line x1="-6.1" y1="13.0" x2="6.1" y2="17.3"/></g></g><g transform="translate(206.0,82.0) rotate(-28)"><path d="M 0,-17.6 C 13.6,-11.2 13.6,11.2 0,17.6 C -13.6,11.2 -13.6,-11.2 0,-17.6 Z" fill="#7FA0C4"/><g stroke="#3E5F82" stroke-width="1.4" fill="none"><line x1="-5.4" y1="-15.4" x2="5.4" y2="-11.5"/><line x1="-9.0" y1="-10.9" x2="9.0" y2="-7.0"/><line x1="-12.5" y1="-6.4" x2="12.5" y2="-2.6"/><line x1="-16.0" y1="-1.9" x2="16.0" y2="1.9"/><line x1="-12.5" y1="2.6" x2="12.5" y2="6.4"/><line x1="-9.0" y1="7.0" x2="9.0" y2="10.9"/><line x1="-5.4" y1="11.5" x2="5.4" y2="15.4"/></g></g><path d="M 0,0 C 19.8,-3.3 25.3,12.1 11.0,18.7 C 3.3,22.0 -2.2,15.4 3.3,11.0" transform="translate(58.0,122.0) rotate(195)" fill="none" stroke="#7FA0C4" stroke-width="2.0" stroke-linecap="round"/><path d="M 0,0 C -18.0,-3.0 -23.0,11.0 -10.0,17.0 C -3.0,20.0 -2.0,14.0 -3.0,10.0" transform="translate(272.0,140.0) rotate(-15)" fill="none" stroke="#7FA0C4" stroke-width="1.8" stroke-linecap="round"/><ellipse cx="172.0" cy="158.0" rx="8.4" ry="4.4" transform="rotate(0 172.0 158.0)"/><ellipse cx="167.9" cy="167.9" rx="8.4" ry="4.4" transform="rotate(45 167.9 167.9)"/><ellipse cx="158.0" cy="172.0" rx="8.4" ry="4.4" transform="rotate(90 158.0 172.0)"/><ellipse cx="148.1" cy="167.9" rx="8.4" ry="4.4" transform="rotate(135 148.1 167.9)"/><ellipse cx="144.0" cy="158.0" rx="8.4" ry="4.4" transform="rotate(180 144.0 158.0)"/><ellipse cx="148.1" cy="148.1" rx="8.4" ry="4.4" transform="rotate(225 148.1 148.1)"/><ellipse cx="158.0" cy="144.0" rx="8.4" ry="4.4" transform="rotate(270 158.0 144.0)"/><ellipse cx="167.9" cy="148.1" rx="8.4" ry="4.4" transform="rotate(315 167.9 148.1)"/><circle cx="158.0" cy="158.0" r="6.0" fill="#3E5F82"/><circle cx="26.0" cy="208.0" r="4.8"/><circle cx="36.5" cy="208.0" r="5.8"/><circle cx="31.3" cy="217.1" r="5.8"/><circle cx="20.7" cy="217.1" r="5.8"/><circle cx="15.5" cy="208.0" r="5.8"/><circle cx="20.7" cy="198.9" r="5.8"/><circle cx="31.3" cy="198.9" r="5.8"/><circle cx="40.4" cy="216.3" r="1.5"/><circle cx="26.0" cy="224.7" r="1.5"/><circle cx="11.6" cy="216.3" r="1.5"/><circle cx="11.6" cy="199.7" r="1.5"/><circle cx="26.0" cy="191.3" r="1.5"/><circle cx="40.4" cy="199.7" r="1.5"/><g transform="translate(240.0,210.0) rotate(18)"><path d="M 0,-19.5 C 7.8,-13.0 7.2,-1.3 0,3.9 C -7.2,-1.3 -7.8,-13.0 0,-19.5 Z"/><circle cx="-8.8" cy="0.7" r="1.9"/><circle cx="8.8" cy="0.7" r="1.9"/><path d="M 0,3.9 Q 1.9,11.7 0,18.2" fill="none" stroke="#7FA0C4" stroke-width="1.2"/><path d="M 0,9.1 C 9.1,7.2 11.7,11.7 5.2,13.7" fill="none" stroke="#7FA0C4" stroke-width="1.2"/><path d="M 0,12.3 C -9.1,10.4 -11.7,14.9 -5.2,16.9" fill="none" stroke="#7FA0C4" stroke-width="1.2"/></g><g transform="translate(108.0,226.0) rotate(-8) scale(1,1)"><path d="M -6.8,5.2 L -13.5,2.2 L -12.0,7.5 Z"/><path d="M 0,-8.2 C 7.5,-7.5 9.0,2.2 2.2,5.2 C 5.2,8.2 1.5,9.3 -2.2,6.8 C -8.2,4.5 -7.5,-6.0 0,-8.2 Z"/><path d="M 8.2,-2.2 L 12.8,-0.8 L 7.5,1.2 Z"/><circle cx="3.0" cy="-4.2" r="0.9" fill="#3E5F82"/><path d="M -0.8,8.2 L -1.2,12.0 M 2.2,8.2 L 2.7,12.0" fill="none" stroke="#7FA0C4" stroke-width="1.3"/></g><g transform="translate(184.0,250.0) rotate(105)"><path d="M 0,-16.5 C 12.8,-10.5 12.8,10.5 0,16.5 C -12.8,10.5 -12.8,-10.5 0,-16.5 Z" fill="#7FA0C4"/><g stroke="#3E5F82" stroke-width="1.3" fill="none"><line x1="-5.1" y1="-14.4" x2="5.1" y2="-10.8"/><line x1="-8.4" y1="-10.2" x2="8.4" y2="-6.6"/><line x1="-11.7" y1="-6.0" x2="11.7" y2="-2.4"/><line x1="-15.0" y1="-1.8" x2="15.0" y2="1.8"/><line x1="-11.7" y1="2.4" x2="11.7" y2="6.0"/><line x1="-8.4" y1="6.6" x2="8.4" y2="10.2"/><line x1="-5.1" y1="10.8" x2="5.1" y2="14.4"/></g></g><circle cx="272.0" cy="280.0" r="4.5"/><circle cx="281.9" cy="280.0" r="5.4"/><circle cx="277.0" cy="288.6" r="5.4"/><circle cx="267.0" cy="288.6" r="5.4"/><circle cx="262.1" cy="280.0" r="5.4"/><circle cx="267.0" cy="271.4" r="5.4"/><circle cx="277.0" cy="271.4" r="5.4"/><circle cx="285.6" cy="287.8" r="1.4"/><circle cx="272.0" cy="295.7" r="1.4"/><circle cx="258.4" cy="287.8" r="1.4"/><circle cx="258.4" cy="272.2" r="1.4"/><circle cx="272.0" cy="264.3" r="1.4"/><circle cx="285.6" cy="272.2" r="1.4"/><ellipse cx="52.5" cy="278.0" rx="6.3" ry="3.3" transform="rotate(0 52.5 278.0)"/><ellipse cx="49.4" cy="285.4" rx="6.3" ry="3.3" transform="rotate(45 49.4 285.4)"/><ellipse cx="42.0" cy="288.5" rx="6.3" ry="3.3" transform="rotate(90 42.0 288.5)"/><ellipse cx="34.6" cy="285.4" rx="6.3" ry="3.3" transform="rotate(135 34.6 285.4)"/><ellipse cx="31.5" cy="278.0" rx="6.3" ry="3.3" transform="rotate(180 31.5 278.0)"/><ellipse cx="34.6" cy="270.6" rx="6.3" ry="3.3" transform="rotate(225 34.6 270.6)"/><ellipse cx="42.0" cy="267.5" rx="6.3" ry="3.3" transform="rotate(270 42.0 267.5)"/><ellipse cx="49.4" cy="270.6" rx="6.3" ry="3.3" transform="rotate(315 49.4 270.6)"/><circle cx="42.0" cy="278.0" r="4.5" fill="#3E5F82"/><path d="M 0,0 C 15.3,-2.5 19.5,9.4 8.5,14.4 C 2.5,17.0 -1.7,11.9 2.5,8.5" transform="translate(158.0,275.0) rotate(55)" fill="none" stroke="#7FA0C4" stroke-width="1.5" stroke-linecap="round"/><g transform="translate(20.0,100.0) rotate(200)"><path d="M 0,-16.5 C 6.6,-11.0 6.1,-1.1 0,3.3 C -6.1,-1.1 -6.6,-11.0 0,-16.5 Z"/><circle cx="-7.5" cy="0.6" r="1.6"/><circle cx="7.5" cy="0.6" r="1.6"/><path d="M 0,3.3 Q 1.6,9.9 0,15.4" fill="none" stroke="#7FA0C4" stroke-width="1.0"/><path d="M 0,7.7 C 7.7,6.1 9.9,9.9 4.4,11.6" fill="none" stroke="#7FA0C4" stroke-width="1.0"/><path d="M 0,10.4 C -7.7,8.8 -9.9,12.6 -4.4,14.3" fill="none" stroke="#7FA0C4" stroke-width="1.0"/></g><ellipse cx="311.2" cy="170.0" rx="6.7" ry="3.5" transform="rotate(0 311.2 170.0)"/><ellipse cx="307.9" cy="177.9" rx="6.7" ry="3.5" transform="rotate(45 307.9 177.9)"/><ellipse cx="300.0" cy="181.2" rx="6.7" ry="3.5" transform="rotate(90 300.0 181.2)"/><ellipse cx="292.1" cy="177.9" rx="6.7" ry="3.5" transform="rotate(135 292.1 177.9)"/><ellipse cx="288.8" cy="170.0" rx="6.7" ry="3.5" transform="rotate(180 288.8 170.0)"/><ellipse cx="292.1" cy="162.1" rx="6.7" ry="3.5" transform="rotate(225 292.1 162.1)"/><ellipse cx="300.0" cy="158.8" rx="6.7" ry="3.5" transform="rotate(270 300.0 158.8)"/><ellipse cx="307.9" cy="162.1" rx="6.7" ry="3.5" transform="rotate(315 307.9 162.1)"/><circle cx="300.0" cy="170.0" r="4.8" fill="#3E5F82"/><circle cx="153.6" cy="116.8" r="2.7"/><circle cx="155.3" cy="104.2" r="2.7"/><circle cx="134.8" cy="102.7" r="2.7"/><circle cx="188.8" cy="119.8" r="2.7"/><circle cx="185.4" cy="114.6" r="2.7"/><circle cx="86.8" cy="25.8" r="2.2"/><circle cx="68.8" cy="33.3" r="2.2"/><circle cx="88.5" cy="28.4" r="2.2"/><circle cx="270.2" cy="184.6" r="2.2"/><circle cx="279.5" cy="199.5" r="2.2"/><circle cx="291.4" cy="204.8" r="2.2"/><circle cx="295.5" cy="198.3" r="2.2"/><circle cx="16.5" cy="156.9" r="2.2"/><circle cx="9.1" cy="170.2" r="2.2"/><circle cx="19.9" cy="165.5" r="2.2"/><circle cx="214.0" cy="292.9" r="2.2"/><circle cx="218.5" cy="299.5" r="2.2"/><circle cx="224.8" cy="301.9" r="2.2"/><circle cx="215.5" cy="290.3" r="2.2"/></g></g></svg>