<svg xmlns="http://www.w3.org/2000/svg" width="380" height="380" viewBox="0 0 380 380"><g opacity="0.42"><g fill="none" stroke="#7FA0C4" stroke-width="2.6" stroke-linecap="round" stroke-linejoin="round"><path d="M 78.5,55.0 Q 78.5,62.5 104.0,55.0 Q 78.5,47.5 78.5,55.0 Z"/><path d="M 76.0,61.0 Q 70.7,66.3 94.0,79.0 Q 81.3,55.7 76.0,61.0 Z"/><path d="M 70.0,63.5 Q 62.5,63.5 70.0,89.0 Q 77.5,63.5 70.0,63.5 Z"/><path d="M 64.0,61.0 Q 58.7,55.7 46.0,79.0 Q 69.3,66.3 64.0,61.0 Z"/><path d="M 61.5,55.0 Q 61.5,47.5 36.0,55.0 Q 61.5,62.5 61.5,55.0 Z"/><path d="M 64.0,49.0 Q 69.3,43.7 46.0,31.0 Q 58.7,54.3 64.0,49.0 Z"/><path d="M 70.0,46.5 Q 77.5,46.5 70.0,21.0 Q 62.5,46.5 70.0,46.5 Z"/><path d="M 76.0,49.0 Q 81.3,54.3 94.0,31.0 Q 70.7,43.7 76.0,49.0 Z"/><circle cx="70.0" cy="55.0" r="10.9"/><circle cx="70.0" cy="55.0" r="4.8"/><circle cx="175.0" cy="28.0" r="6.3"/><circle cx="186.4" cy="36.3" r="6.3"/><circle cx="182.1" cy="49.7" r="6.3"/><circle cx="167.9" cy="49.7" r="6.3"/><circle cx="163.6" cy="36.3" r="6.3"/><circle cx="175.0" cy="40.0" r="4.5"/><g transform="translate(255.0,50.0) rotate(-8)"><path d="M 0,-22.5 C 9.8,-15.0 9.0,-0.8 0,5.2 C -9.0,-0.8 -9.8,-15.0 0,-22.5 Z"/><path d="M 0,-19.5 L 0,3.0"/><circle cx="-10.8" cy="1.5" r="2.4"/><circle cx="10.8" cy="1.5" r="2.4"/><path d="M 0,5.2 Q 3.0,16.5 0,28.5"/><path d="M 0,28.5 C 10.5,27.0 13.5,18.0 6.0,17.2"/><path d="M 0,16.5 C 11.2,14.2 13.5,22.5 3.8,23.2"/></g><g transform="translate(335.0,90.0)"><path d="M -20.0,0 L 20.0,0 M 0,-20.0 L 0,20.0 M -14.0,-14.0 L 14.0,14.0 M -14.0,14.0 L 14.0,-14.0"/><path d="M -8.0,-8.0 L 8.0,-8.0 L 8.0,8.0 L -8.0,8.0 Z"/><circle r="2.0"/></g><g transform="translate(115.0,105.0) rotate(40)"><path d="M 0,-20.9 C 15.2,-12.3 15.2,12.3 0,20.9 C -15.2,12.3 -15.2,-12.3 0,-20.9 Z"/><path d="M 0,-19.0 L 0,19.0 M 0,-5.7 L 7.6,1.0 M 0,2.9 L -7.6,9.5 M 0,-10.5 L -6.6,-3.8"/></g><path d="M 0,0 C 21.6,-3.6 27.6,13.2 12.0,20.4 C 3.6,24.0 -2.4,16.8 3.6,12.0" transform="translate(30.0,130.0) rotate(190)"/><circle cx="300.0" cy="118.8" r="5.9"/><circle cx="310.7" cy="126.5" r="5.9"/><circle cx="306.6" cy="139.1" r="5.9"/><circle cx="293.4" cy="139.1" r="5.9"/><circle cx="289.3" cy="126.5" r="5.9"/><circle cx="300.0" cy="130.0" r="4.2"/><g transform="translate(50.0,210.0)"><path d="M 0,10.5 C -15.0,-10.5 -42.0,1.5 0,39.0 C 42.0,1.5 15.0,-10.5 0,10.5 Z"/><circle cx="0" cy="22.5" r="4.8" transform="translate(50.0,210.0)"/><g transform="translate(-50.0,-210.0)"><circle cx="7.5" cy="22.5" r="1.8"/><circle cx="3.8" cy="29.0" r="1.8"/><circle cx="-3.7" cy="29.0" r="1.8"/><circle cx="-7.5" cy="22.5" r="1.8"/><circle cx="-3.8" cy="16.0" r="1.8"/><circle cx="3.8" cy="16.0" r="1.8"/></g></g><circle cx="150.0" cy="164.6" r="5.5"/><circle cx="159.9" cy="171.8" r="5.5"/><circle cx="156.1" cy="183.4" r="5.5"/><circle cx="143.9" cy="183.4" r="5.5"/><circle cx="140.1" cy="171.8" r="5.5"/><circle cx="150.0" cy="175.0" r="3.9"/><path d="M 242.5,205.0 Q 242.5,211.6 265.0,205.0 Q 242.5,198.4 242.5,205.0 Z"/><path d="M 240.3,210.3 Q 235.6,215.0 256.2,226.2 Q 245.0,205.6 240.3,210.3 Z"/><path d="M 235.0,212.5 Q 228.4,212.5 235.0,235.0 Q 241.6,212.5 235.0,212.5 Z"/><path d="M 229.7,210.3 Q 225.0,205.6 213.8,226.2 Q 234.4,215.0 229.7,210.3 Z"/><path d="M 227.5,205.0 Q 227.5,198.4 205.0,205.0 Q 227.5,211.6 227.5,205.0 Z"/><path d="M 229.7,199.7 Q 234.4,195.0 213.8,183.8 Q 225.0,204.4 229.7,199.7 Z"/><path d="M 235.0,197.5 Q 241.6,197.5 235.0,175.0 Q 228.4,197.5 235.0,197.5 Z"/><path d="M 240.3,199.7 Q 245.0,204.4 256.2,183.8 Q 235.6,195.0 240.3,199.7 Z"/><circle cx="235.0" cy="205.0" r="9.6"/><circle cx="235.0" cy="205.0" r="4.2"/><g transform="translate(330.0,220.0) rotate(12)"><path d="M 0,-21.0 C 9.1,-14.0 8.4,-0.7 0,4.9 C -8.4,-0.7 -9.1,-14.0 0,-21.0 Z"/><path d="M 0,-18.2 L 0,2.8"/><circle cx="-10.1" cy="1.4" r="2.2"/><circle cx="10.1" cy="1.4" r="2.2"/><path d="M 0,4.9 Q 2.8,15.4 0,26.6"/><path d="M 0,26.6 C 9.8,25.2 12.6,16.8 5.6,16.1"/><path d="M 0,15.4 C 10.5,13.3 12.6,21.0 3.5,21.7"/></g><g transform="translate(115.0,250.0) rotate(-6) scale(1,1)"><path d="M -7.2,5.6 L -14.4,2.4 L -12.8,8.0 Z"/><path d="M 0,-8.8 C 8.0,-8.0 9.6,2.4 2.4,5.6 C 5.6,8.8 1.6,9.9 -2.4,7.2 C -8.8,4.8 -8.0,-6.4 0,-8.8 Z"/><path d="M 8.8,-2.4 L 13.6,-0.8 L 8.0,1.3 Z"/><path d="M -2.4,0 C 1.6,0.3 1.6,3.2 -1.6,4.0"/><path d="M -0.8,8.8 L -1.3,12.8 M 2.4,8.8 L 2.9,12.8"/></g><g transform="translate(190.0,265.0) rotate(100)"><path d="M 0,-17.6 C 12.8,-10.4 12.8,10.4 0,17.6 C -12.8,10.4 -12.8,-10.4 0,-17.6 Z"/><path d="M 0,-16.0 L 0,16.0 M 0,-4.8 L 6.4,0.8 M 0,2.4 L -6.4,8.0 M 0,-8.8 L -5.6,-3.2"/></g><g transform="translate(65.0,300.0)"><path d="M -17.0,0 L 17.0,0 M 0,-17.0 L 0,17.0 M -11.9,-11.9 L 11.9,11.9 M -11.9,11.9 L 11.9,-11.9"/><path d="M -6.8,-6.8 L 6.8,-6.8 L 6.8,6.8 L -6.8,6.8 Z"/><circle r="1.7"/></g><circle cx="280.0" cy="288.0" r="6.3"/><circle cx="291.4" cy="296.3" r="6.3"/><circle cx="287.1" cy="309.7" r="6.3"/><circle cx="272.9" cy="309.7" r="6.3"/><circle cx="268.6" cy="296.3" r="6.3"/><circle cx="280.0" cy="300.0" r="4.5"/><path d="M 162.0,330.0 Q 162.0,336.2 183.0,330.0 Q 162.0,323.8 162.0,330.0 Z"/><path d="M 159.9,334.9 Q 155.6,339.3 174.8,349.8 Q 164.3,330.6 159.9,334.9 Z"/><path d="M 155.0,337.0 Q 148.8,337.0 155.0,358.0 Q 161.2,337.0 155.0,337.0 Z"/><path d="M 150.1,334.9 Q 145.7,330.6 135.2,349.8 Q 154.4,339.3 150.1,334.9 Z"/><path d="M 148.0,330.0 Q 148.0,323.8 127.0,330.0 Q 148.0,336.2 148.0,330.0 Z"/><path d="M 150.1,325.1 Q 154.4,320.7 135.2,310.2 Q 145.7,329.4 150.1,325.1 Z"/><path d="M 155.0,323.0 Q 161.2,323.0 155.0,302.0 Q 148.8,323.0 155.0,323.0 Z"/><path d="M 159.9,325.1 Q 164.3,329.4 174.8,310.2 Q 155.6,320.7 159.9,325.1 Z"/><circle cx="155.0" cy="330.0" r="9.0"/><circle cx="155.0" cy="330.0" r="3.9"/><path d="M 0,0 C -18.0,-3.0 -23.0,11.0 -10.0,17.0 C -3.0,20.0 -2.0,14.0 -3.0,10.0" transform="translate(340.0,330.0) rotate(-20)"/><g transform="translate(20.0,355.0) rotate(205)"><path d="M 0,-18.0 C 7.8,-12.0 7.2,-0.6 0,4.2 C -7.2,-0.6 -7.8,-12.0 0,-18.0 Z"/><path d="M 0,-15.6 L 0,2.4"/><circle cx="-8.6" cy="1.2" r="1.9"/><circle cx="8.6" cy="1.2" r="1.9"/><path d="M 0,4.2 Q 2.4,13.2 0,22.8"/><path d="M 0,22.8 C 8.4,21.6 10.8,14.4 4.8,13.8"/><path d="M 0,13.2 C 9.0,11.4 10.8,18.0 3.0,18.6"/></g><circle cx="230.0" cy="11.2" r="4.6"/><circle cx="238.4" cy="17.3" r="4.6"/><circle cx="235.2" cy="27.1" r="4.6"/><circle cx="224.8" cy="27.1" r="4.6"/><circle cx="221.6" cy="17.3" r="4.6"/><circle cx="230.0" cy="20.0" r="3.3"/><g transform="translate(300.0,355.0) rotate(-35)"><path d="M 0,-16.5 C 12.0,-9.8 12.0,9.8 0,16.5 C -12.0,9.8 -12.0,-9.8 0,-16.5 Z"/><path d="M 0,-15.0 L 0,15.0 M 0,-4.5 L 6.0,0.8 M 0,2.2 L -6.0,7.5 M 0,-8.2 L -5.2,-3.0"/></g><circle cx="145.6" cy="114.1" r="3.0" fill="#7FA0C4" stroke="none"/><circle cx="197.8" cy="93.3" r="3.0" fill="#7FA0C4" stroke="none"/><circle cx="142.7" cy="103.4" r="3.0" fill="#7FA0C4" stroke="none"/><circle cx="186.2" cy="130.8" r="3.0" fill="#7FA0C4" stroke="none"/><circle cx="145.1" cy="73.2" r="3.0" fill="#7FA0C4" stroke="none"/><circle cx="188.9" cy="114.3" r="3.0" fill="#7FA0C4" stroke="none"/><circle cx="33.6" cy="68.7" r="2.6" fill="#7FA0C4" stroke="none"/><circle cx="19.7" cy="59.2" r="2.6" fill="#7FA0C4" stroke="none"/><circle cx="39.2" cy="57.8" r="2.6" fill="#7FA0C4" stroke="none"/><circle cx="349.5" cy="174.8" r="2.6" fill="#7FA0C4" stroke="none"/><circle cx="360.2" cy="190.4" r="2.6" fill="#7FA0C4" stroke="none"/><circle cx="358.2" cy="189.7" r="2.6" fill="#7FA0C4" stroke="none"/><circle cx="362.7" cy="196.8" r="2.6" fill="#7FA0C4" stroke="none"/><circle cx="109.1" cy="176.7" r="2.6" fill="#7FA0C4" stroke="none"/><circle cx="84.3" cy="181.2" r="2.6" fill="#7FA0C4" stroke="none"/><circle cx="87.3" cy="173.5" r="2.6" fill="#7FA0C4" stroke="none"/><circle cx="238.4" cy="270.0" r="2.6" fill="#7FA0C4" stroke="none"/><circle cx="248.3" cy="271.8" r="2.6" fill="#7FA0C4" stroke="none"/><circle cx="279.9" cy="269.6" r="2.6" fill="#7FA0C4" stroke="none"/><circle cx="264.5" cy="255.1" r="2.6" fill="#7FA0C4" stroke="none"/><circle cx="358.0" cy="304.6" r="2.6" fill="#7FA0C4" stroke="none"/><circle cx="359.6" cy="301.5" r="2.6" fill="#7FA0C4" stroke="none"/><circle cx="360.9" cy="291.2" r="2.6" fill="#7FA0C4" stroke="none"/></g></g></svg>